<?xml version="1.0" encoding="UTF-8" standalone="no"?>
<!-- Generator: flash2svg, http://dissentgraphics.com/tools/flash2svg -->

<svg
   id="OpenEmu"
   image-rendering="optimizeSpeed"
   version="1.1"
   x="0px"
   y="0px"
   width="128"
   height="128"
   viewBox="0 0 128 128"
   enable-background="new 0 0 1024 1024"
   sodipodi:docname="emucon.svg"
   inkscape:version="1.2.2 (b0a8486541, 2022-12-01)"
   xmlns:inkscape="http://www.inkscape.org/namespaces/inkscape"
   xmlns:sodipodi="http://sodipodi.sourceforge.net/DTD/sodipodi-0.dtd"
   xmlns="http://www.w3.org/2000/svg"
   xmlns:svg="http://www.w3.org/2000/svg">
  <sodipodi:namedview
     id="namedview63"
     pagecolor="#ffffff"
     bordercolor="#000000"
     borderopacity="0.25"
     inkscape:showpageshadow="2"
     inkscape:pageopacity="0.0"
     inkscape:pagecheckerboard="0"
     inkscape:deskcolor="#d1d1d1"
     showgrid="false"
     inkscape:zoom="3.2626781"
     inkscape:cx="79.689136"
     inkscape:cy="76.317673"
     inkscape:window-width="1368"
     inkscape:window-height="719"
     inkscape:window-x="0"
     inkscape:window-y="0"
     inkscape:window-maximized="1"
     inkscape:current-layer="g472" />
  <defs
     transform="matrix(1 0 0 1 0 0) "
     id="defs2" />
  <mask
     id="Calque.__206">
    <g
       id="g">
      <g
         id="shape12">
        <path
           id="path5"
           fill="#ffffff"
           fill-opacity="1"
           d="m 780.6,333.2 q -0.1,-0.5 -0.1,-0.95 c 0,-0.65 -0.35,-1.05 -1.05,-1.05 h -534.8 c -0.7,0 -1.05,0.4 -1.05,1.05 0,0.3 0,0.6 0,0.95 l -11.9,338.6 c 0.05,0.6 0.4,0.85 1.05,0.85 h 116.3 v 0.05 h 32.05 v -0.05 h 105.65 10.05 2.85 27.2 2.9 7.05 111.55 v 0.05 h 32.05 v -0.05 h 10.7 100.25 c 0.65,0 1,-0.25 1.05,-0.85 z" />
      </g>
    </g>
  </mask>
  <g
     id="g472"
     transform="matrix(0.11378173,0,0,0.11378173,32.72226,32.530967)">
    <g
       id="g294"
       transform="matrix(1.4162896,0,0,1.4232767,-450.31863,-371.49196)">
      <g
         id="Calque.__203">
        <g
           id="shape8">
          <path
             id="path4"
             fill="#05121a"
             fill-opacity="1"
             d="m 780.6,333.2 q -0.1,-0.5 -0.1,-0.95 c 0,-0.65 -0.35,-1.05 -1.05,-1.05 h -534.8 c -0.7,0 -1.05,0.4 -1.05,1.05 0,0.3 0,0.6 0,0.95 l -11.9,338.6 c 0.05,0.6 0.4,0.85 1.05,0.85 h 116.3 v 0.05 h 32.05 v -0.05 h 105.65 10.05 2.85 27.2 2.9 7.05 111.55 v 0.05 h 32.05 v -0.05 h 10.7 100.25 c 0.65,0 1,-0.25 1.05,-0.85 z" />
        </g>
      </g>
      <g
         id="masked"
         mask="url(#Calque.__206)">
        <g
           id="Calque.__204">
          <g
             id="shape10"
             transform="translate(205.35,381)" />
        </g>
        <g
           id="Calque.__205">
          <g
             id="shape11"
             transform="translate(281.8,212.7)" />
        </g>
      </g>
      <g
         id="bg2">
        <g
           id="shape14">
          <path
             id="path6"
             fill="#e74c3c"
             fill-opacity="1"
             d="M 691.1,299.05 H 659.05 536.8 526.85 496.8 486.75 244.65 c -22.15,0 -33.2,11.1 -33.2,33.2 l -19.8,349.3 c 0.65,20.8 11.7,31.2 33.15,31.2 H 381.05 799.3 c 21.45,0 32.5,-10.4 33.2,-31.2 l -19.85,-349.3 q 0,-33.2 -33.2,-33.2 z m 89.5,34.15 11.8,338.6 c -0.05,0.6 -0.4,0.85 -1.05,0.85 H 691.1 680.4 v 0.05 h -32.05 v -0.05 h -111.55 -7.05 -2.9 -27.2 -2.85 -10.05 -105.65 v 0.05 h -32.05 v -0.05 h -116.3 c -0.65,0 -1,-0.25 -1.05,-0.85 l 11.9,-338.6 c 0,-0.35 0,-0.65 0,-0.95 0,-0.65 0.35,-1.05 1.05,-1.05 h 534.8 c 0.7,0 1.05,0.4 1.05,1.05 0,0.3 0,0.6 0.1,0.95 z" />
          <path
             id="path10"
             fill="#8e261c"
             fill-opacity="1"
             d="m 832.5,681.55 c -0.7,20.8 -11.75,31.2 -33.2,31.2 H 381.05 l 128.6,128.6 H 799.3 c 22.1,0 33.2,-11.1 33.2,-33.2 z" />
          <path
             id="path11"
             fill="#a52f23"
             fill-opacity="1"
             d="m 224.8,712.75 c -21.45,0 -32.5,-10.4 -33.15,-31.2 l -0.05,126.6 c 0,22.1 11.1,33.2 33.2,33.2 h 284.85 l -128.6,-128.6 z" />
        </g>
      </g>
      <g
         id="Calque.__207">
        <g
           id="shape22">
          <path
             id="path12"
             fill="#000000"
             fill-opacity="0.298039"
             d="m 270.6,624.05 48.6,48.6 h 29.85 v 0.05 h 32.05 v -0.05 h 94.15 l -67.4,-67.4 z" />
        </g>
      </g>
      <g
         id="Calque.__208">
        <g
           id="shape24">
          <path
             id="path13"
             fill="#386893"
             fill-opacity="1"
             d="m 264.2,574.05 q -0.15,1.555 -0.15,3.15 c 0,1.05 0.05,2.15 0.15,3.2 v 20.8 c -0.1,1.05 -0.15,2.15 -0.15,3.2 0,1.05 0.05,2.15 0.15,3.2 1.1,11.45 8.05,21.3 20.9,29.6 14.05,9.05 31,13.6 50.85,13.6 4.25,0 8.35,-0.2 12.35,-0.6 14.65,-1.55 27.45,-5.85 38.5,-13 13.75,-8.85 20.75,-19.5 21.05,-31.95 v -0.025 -28.875 c 0,-0.1 0,-0.2 0,-0.3 -0.45,-12.3 -7.45,-22.85 -21.05,-31.65 -14.05,-9.05 -31,-13.6 -50.85,-13.6 -19.85,0 -36.8,4.55 -50.85,13.6 -12.85,8.3 -19.85,18.2 -20.9,29.65 z" />
        </g>
      </g>
      <g
         id="Calque.__209">
        <g
           id="shape26">
          <path
             id="path14"
             fill="#3979ac"
             fill-opacity="1"
             d="m 285.5,544.7 q -21.05,13.6 -21.05,32.8 c 0,12.8 7,23.75 21.05,32.8 14.05,9.05 31,13.6 50.85,13.6 19.85,0 36.8,-4.55 50.85,-13.6 14.05,-9.05 21.05,-20 21.05,-32.8 0,-12.8 -7,-23.75 -21.05,-32.8 -14.05,-9.05 -31,-13.6 -50.85,-13.6 -19.85,0 -36.8,4.55 -50.85,13.6 z" />
        </g>
      </g>
      <g
         id="Calque.__210">
        <g
           id="shape28">
          <path
             id="path15"
             fill="#52b0fe"
             fill-opacity="1"
             d="m 293.35,553.65 q -13.35,8.6 -14.2,20.2 c 0.55,7.75 5.3,14.45 14.2,20.2 11.8,7.45 26.05,11.2 42.7,11.2 16.65,0 30.9,-3.75 42.7,-11.2 8.9,-5.75 13.65,-12.45 14.2,-20.2 -0.55,-7.75 -5.3,-14.45 -14.2,-20.2 -11.8,-7.45 -26.05,-11.2 -42.7,-11.2 -16.65,0 -30.9,3.75 -42.7,11.2 z" />
        </g>
      </g>
      <g
         id="Calque.__211">
        <g
           id="shape30">
          <path
             id="path16"
             fill="#05121a"
             fill-opacity="1"
             d="m 583.6,559.1 q 28,-24.45 28,-59 c 0,-23.05 -9.35,-42.75 -28,-59.1 -18.65,-16.25 -41.15,-24.4 -67.5,-24.4 -26.35,0 -48.9,8.15 -67.55,24.4 -18.65,16.35 -27.95,36.05 -27.95,59.1 0,23.05 9.3,42.7 27.95,59 18.65,16.35 41.2,24.5 67.55,24.5 26.35,0 48.85,-8.15 67.5,-24.5 z" />
          <path
             id="path17"
             fill="none"
             stroke="#14405d"
             stroke-opacity="1"
             stroke-width="8.1"
             stroke-linecap="round"
             stroke-linejoin="round"
             d="m 583.6,559.1 q 28,-24.45 28,-59 c 0,-23.05 -9.35,-42.75 -28,-59.1 -18.65,-16.25 -41.15,-24.4 -67.5,-24.4 -26.35,0 -48.9,8.15 -67.55,24.4 -18.65,16.35 -27.95,36.05 -27.95,59.1 0,23.05 9.3,42.7 27.95,59 18.65,16.35 41.2,24.5 67.55,24.5 26.35,0 48.85,-8.15 67.5,-24.5 z" />
        </g>
      </g>
      <g
         id="Calque.__212">
        <g
           id="shape32">
          <path
             id="path18"
             fill="#000000"
             fill-opacity="0.298039"
             d="m 653.3,672.7 h 27.1 v -0.05 H 691.1 731 L 541.55,483.2 l -48.8,-19.775 -5.6,43.125 z" />
        </g>
      </g>
      <g
         id="Calque.__213">
        <g
           id="shape34">
          <path
             id="path19"
             fill="#9e9e9e"
             fill-opacity="1"
             d="m 512.05,175 q -14.35,0 -24.5,10.15 c -6.75,6.75 -10.15,14.95 -10.15,24.5 V 338.2 l 69.3,69.3 V 209.65 c 0,-9.55 -3.4,-17.75 -10.15,-24.5 C 529.8,178.4 521.6,175 512.05,175 Z" />
          <path
             id="path20"
             fill="#cccccc"
             fill-opacity="1"
             d="M 546.7,481.65 V 407.5 l -69.3,-69.3 v 143.45 c 0,9.55 3.4,17.75 10.15,24.5 6.75,6.75 14.95,10.15 24.5,10.15 9.55,0 17.75,-3.4 24.5,-10.15 6.75,-6.75 10.15,-14.95 10.15,-24.5 z" />
        </g>
      </g>
      <g
         id="bg3">
        <g
           id="shape38">
          <path
             id="path21"
             fill="#9b3b2e"
             fill-opacity="1"
             d="M 589.9,94.7 C 567.35,78.35 541.4,70.15 512.05,70.15 c -37.15,0 -68.9,13.15 -95.2,39.45 -26.3,26.3 -39.45,58.05 -39.45,95.2 0,25.05 6,47.65 17.95,67.8 5.75,9.7 12.95,18.85 21.5,27.4 26.3,26.3 58.05,39.45 95.2,39.45 37.15,0 68.9,-13.15 95.2,-39.45 h -0.025 l 0.025,-0.025 V 300 c 26.3,-26.3 39.45,-58.05 39.45,-95.2 0,-37.15 -13.15,-68.9 -39.45,-95.2 C 601.7,104.05 595.9,99.05 589.9,94.7 Z" />
          <path
             id="path22"
             fill="#b94d3d"
             fill-opacity="1"
             d="m 595.575,121.225 q -2.914,-2.914 -5.925,-5.575 c -2.75,41.85 -19.3,77.95 -49.7,108.3 -33.35,33.4 -73.65,50.1 -120.9,50.1 -0.95,0 -1.95,0 -2.95,0 3.65,4.95 7.8,9.7 12.4,14.3 23.05,23.05 50.9,34.6 83.55,34.6 32.65,0 60.5,-11.55 83.55,-34.6 23.05,-23.05 34.6,-50.9 34.6,-83.55 0,-32.65 -11.55,-60.5 -34.6,-83.55" />
          <path
             id="path23"
             fill="#da5b4a"
             fill-opacity="1"
             d="m 589.65,115.65 c -21.85,-19.35 -47.75,-29 -77.6,-29 -32.6,0 -60.45,11.55 -83.55,34.6 v -0.025 l -0.025,0.025 h 0.025 c -23.05,23.1 -34.6,50.95 -34.6,83.55 0,26.15 7.4,49.2 22.2,69.25 1,0 2,0 2.95,0 47.25,0 87.55,-16.7 120.9,-50.1 30.4,-30.35 46.95,-66.45 49.7,-108.3 z" />
        </g>
      </g>
      <g
         id="Calque.__214">
        <g
           id="shape43">
          <path
             id="path24"
             fill="#ffa896"
             fill-opacity="1"
             d="m 477.65,129.6 q -8.4,-8.4 -20.35,-8.4 c -7.95,0 -14.75,2.8 -20.4,8.4 -5.6,5.65 -8.4,12.45 -8.4,20.4 0,7.95 2.8,14.75 8.4,20.35 5.65,5.65 12.45,8.45 20.4,8.45 7.95,0 14.75,-2.8 20.35,-8.45 5.65,-5.6 8.45,-12.4 8.45,-20.35 0,-7.95 -2.8,-14.75 -8.45,-20.4 z" />
        </g>
      </g>
    </g>
  </g>
</svg>
